# xmcd CD database file
#
# Track frame offsets:
#	150
#	15802
#	34515
#	64247
#
# Disc length: 4440 seconds
#
# Revision: 0
# Processed by: cddbd v1.5PL3 Copyright (c) Steve Scherf et al.
# Submitted via: CDex 1.51
#
DISCID=22115604
DTITLE=COOL DRIVE - 風向きはいつだって変わる
DYEAR=2004
DGENRE=JPop
TTITLE0=風向きはいつだって変わる
TTITLE1=スーツケース (naked ver.)
TTITLE2=みんなのブルース
TTITLE3=CCCD Data
EXTD=YEAR: 2004
EXTT0=
EXTT1=
EXTT2=
EXTT3=
PLAYORDER=
